# xmcd CD database file
#
# Track frame offsets:
#	150
#	16818
#	34578
#	54242
#	74376
#	95923
#	117989
#	135545
#	152229
#	171246
#	187503
#	206013
#	224785
#	244245
#	263956
#	278132
#	298258
#	319409
#
# Disc length: 4436 seconds
#
# Revision: 0
# Processed by: cddbd v1.5.1PL0 Copyright (c) Steve Scherf et al.
# Submitted via: CDex 1.51
#
DISCID=18115212
DTITLE=J.J. Johnson - The Eminent J.J. Johnson
DYEAR=1900
DGENRE=Jazz
TTITLE0=02 - Capri
TTITLE1=03 - Lover Man
TTITLE2=04 - Turnpike
TTITLE3=06 - Sketch 1
TTITLE4=07 - It Could Happen To You
TTITLE5=08 - Get Happy
TTITLE6=10 - Old Devil Moon
TTITLE7=11 - Jay
TTITLE8=12 - Time After Time
TTITLE9=13 - Too Marvelous for Words
TTITLE10=14 - It's You or No One
TTITLE11=15 - Coffee Pot
TTITLE12=17 - Pennies From Heaven
TTITLE13=18 - Viscosity
TTITLE14=20 - You're Mine You
TTITLE15=21 - Daylie Double
TTITLE16=22 - Groovin'
TTITLE17=23 - Portrait of Jennie
EXTD=
EXTT0=
EXTT1=
EXTT2=
EXTT3=
EXTT4=
EXTT5=
EXTT6=
EXTT7=
EXTT8=
EXTT9=
EXTT10=
EXTT11=
EXTT12=
EXTT13=
EXTT14=
EXTT15=
EXTT16=
EXTT17=
PLAYORDER=
